<svg xmlns="http://www.w3.org/2000/svg" xmlns:xlink="http://www.w3.org/1999/xlink" width="500" zoomAndPan="magnify" viewBox="0 0 375 374.999991" height="500" preserveAspectRatio="xMidYMid meet" version="1.0"><defs><g/><clipPath id="a168a16b0c"><path d="M 37.5 37.5 L 337.5 37.5 L 337.5 337.5 L 37.5 337.5 Z M 37.5 37.5 " clip-rule="nonzero"/></clipPath><clipPath id="f2a76ce620"><path d="M 187.5 37.5 C 104.65625 37.5 37.5 104.65625 37.5 187.5 C 37.5 270.34375 104.65625 337.5 187.5 337.5 C 270.34375 337.5 337.5 270.34375 337.5 187.5 C 337.5 104.65625 270.34375 37.5 187.5 37.5 Z M 187.5 37.5 " clip-rule="nonzero"/></clipPath><clipPath id="c48f894950"><path d="M 176.726562 132.566406 L 208.488281 132.566406 L 208.488281 239.515625 L 176.726562 239.515625 Z M 176.726562 132.566406 " clip-rule="nonzero"/></clipPath><clipPath id="442f0ef653"><path d="M 176.726562 126.996094 L 230.632812 126.996094 L 230.632812 152.617188 L 176.726562 152.617188 Z M 176.726562 126.996094 " clip-rule="nonzero"/></clipPath></defs><g clip-path="url(#a168a16b0c)"><g clip-path="url(#f2a76ce620)"><path fill="#272727" d="M 37.5 37.5 L 337.5 37.5 L 337.5 337.5 L 37.5 337.5 Z M 37.5 37.5 " fill-opacity="1" fill-rule="nonzero"/></g></g><g fill="#00bf63" fill-opacity="1"><g transform="translate(84.987252, 239.51211)"><g><path d="M 56.71875 -109.390625 C 70.46875 -109.390625 81.769531 -106.601562 90.625 -101.03125 C 99.488281 -95.457031 104.023438 -87.195312 104.234375 -76.25 L 104.234375 -74.375 L 71.875 -74.375 L 71.875 -75 C 71.875 -78.132812 70.726562 -80.742188 68.4375 -82.828125 C 66.144531 -84.910156 62.65625 -85.953125 57.96875 -85.953125 C 53.382812 -85.953125 49.867188 -85.273438 47.421875 -83.921875 C 44.972656 -82.566406 43.75 -80.898438 43.75 -78.921875 C 43.75 -76.097656 45.414062 -74.007812 48.75 -72.65625 C 52.082031 -71.300781 57.445312 -69.894531 64.84375 -68.4375 C 73.5 -66.664062 80.613281 -64.816406 86.1875 -62.890625 C 91.757812 -60.960938 96.628906 -57.8125 100.796875 -53.4375 C 104.960938 -49.0625 107.097656 -43.125 107.203125 -35.625 C 107.203125 -22.914062 102.90625 -13.488281 94.3125 -7.34375 C 85.71875 -1.195312 74.226562 1.875 59.84375 1.875 C 43.070312 1.875 30.023438 -0.9375 20.703125 -6.5625 C 11.378906 -12.1875 6.71875 -22.132812 6.71875 -36.40625 L 39.375 -36.40625 C 39.375 -30.988281 40.78125 -27.367188 43.59375 -25.546875 C 46.40625 -23.722656 50.78125 -22.8125 56.71875 -22.8125 C 61.09375 -22.8125 64.710938 -23.28125 67.578125 -24.21875 C 70.441406 -25.15625 71.875 -27.082031 71.875 -30 C 71.875 -32.601562 70.285156 -34.554688 67.109375 -35.859375 C 63.929688 -37.160156 58.75 -38.539062 51.5625 -40 C 42.8125 -41.875 35.570312 -43.828125 29.84375 -45.859375 C 24.113281 -47.890625 19.113281 -51.25 14.84375 -55.9375 C 10.570312 -60.625 8.4375 -66.976562 8.4375 -75 C 8.4375 -86.78125 12.992188 -95.457031 22.109375 -101.03125 C 31.222656 -106.601562 42.757812 -109.390625 56.71875 -109.390625 Z M 56.71875 -109.390625 "/></g></g></g><path stroke-linecap="butt" transform="matrix(0.75, 0, 0, 0.75, 177.178514, 78.26212)" fill="none" stroke-linejoin="miter" d="M 95.834904 71.655719 C 104.715113 71.655719 112.636988 73.707803 119.590114 77.811969 C 126.538031 81.916136 131.949489 87.546345 135.814073 94.702596 C 139.715115 101.853638 141.663032 109.874472 141.663032 118.759889 L 141.663032 121.457806 C 141.663032 130.343223 139.715115 138.395307 135.814073 145.619266 C 131.949489 152.843224 126.538031 158.504683 119.590114 162.60885 C 112.636988 166.713017 104.715113 168.759892 95.834904 168.759892 L 61.449485 168.759892 L 61.449485 214.999479 L 15.413023 214.999479 L 15.413023 71.655719 Z M 61.449485 135.192182 L 80.418236 135.192182 C 85.267195 135.192182 88.913028 133.952598 91.355737 131.47864 C 93.798445 128.968223 95.017195 125.561973 95.017195 121.254681 L 95.017195 119.572389 C 95.017195 115.12968 93.798445 111.707805 91.355737 109.301555 C 88.913028 106.858846 85.267195 105.634888 80.418236 105.634888 L 61.449485 105.634888 Z M 61.449485 135.192182 " stroke="#ffffff" stroke-width="29.690445" stroke-opacity="1" stroke-miterlimit="4"/><g fill="#ff3131" fill-opacity="1"><g transform="translate(177.178514, 239.51211)"><g><path d="M 71.875 -107.515625 C 78.550781 -107.515625 84.492188 -105.976562 89.703125 -102.90625 C 94.910156 -99.832031 98.972656 -95.613281 101.890625 -90.25 C 104.804688 -84.882812 106.265625 -78.863281 106.265625 -72.1875 L 106.265625 -70.15625 C 106.265625 -63.488281 104.804688 -57.445312 101.890625 -52.03125 C 98.972656 -46.613281 94.910156 -42.367188 89.703125 -39.296875 C 84.492188 -36.222656 78.550781 -34.6875 71.875 -34.6875 L 46.09375 -34.6875 L 46.09375 0 L 11.5625 0 L 11.5625 -107.515625 Z M 46.09375 -59.84375 L 60.3125 -59.84375 C 63.957031 -59.84375 66.691406 -60.78125 68.515625 -62.65625 C 70.335938 -64.53125 71.25 -67.082031 71.25 -70.3125 L 71.25 -71.5625 C 71.25 -74.894531 70.335938 -77.472656 68.515625 -79.296875 C 66.691406 -81.128906 63.957031 -82.046875 60.3125 -82.046875 L 46.09375 -82.046875 Z M 46.09375 -59.84375 "/></g></g></g><g clip-path="url(#c48f894950)"><path fill="#ff3131" d="M 176.726562 132.566406 L 208.488281 132.566406 L 208.488281 239.503906 L 176.726562 239.503906 Z M 176.726562 132.566406 " fill-opacity="1" fill-rule="nonzero"/></g><g clip-path="url(#442f0ef653)"><path fill="#ff3131" d="M 176.726562 126.996094 L 230.671875 126.996094 L 230.671875 152.617188 L 176.726562 152.617188 Z M 176.726562 126.996094 " fill-opacity="1" fill-rule="nonzero"/></g><path stroke-linecap="butt" transform="matrix(0.75, -0.000000000000000651, 0.000000000000000651, 0.75, 179.235754, 243.931184)" fill="none" stroke-linejoin="miter" d="M -0.00183804 1.998005 L 65.185666 1.998005 " stroke="#00bf63" stroke-width="4" stroke-opacity="1" stroke-miterlimit="4"/><g fill="#ffffff" fill-opacity="1"><g transform="translate(237.879264, 226.841389)"><g><path d="M 3.453125 -7.96875 C 3.878906 -7.96875 4.289062 -7.90625 4.6875 -7.78125 C 5.09375 -7.65625 5.394531 -7.535156 5.59375 -7.421875 L 5.875 -7.234375 L 5.15625 -5.796875 C 5.101562 -5.835938 5.023438 -5.890625 4.921875 -5.953125 C 4.816406 -6.015625 4.625 -6.09375 4.34375 -6.1875 C 4.070312 -6.289062 3.816406 -6.34375 3.578125 -6.34375 C 3.273438 -6.34375 3.039062 -6.28125 2.875 -6.15625 C 2.71875 -6.03125 2.640625 -5.859375 2.640625 -5.640625 C 2.640625 -5.535156 2.675781 -5.4375 2.75 -5.34375 C 2.832031 -5.25 2.960938 -5.148438 3.140625 -5.046875 C 3.328125 -4.941406 3.488281 -4.859375 3.625 -4.796875 C 3.769531 -4.734375 3.988281 -4.640625 4.28125 -4.515625 C 4.78125 -4.296875 5.207031 -4 5.5625 -3.625 C 5.925781 -3.257812 6.109375 -2.84375 6.109375 -2.375 C 6.109375 -1.925781 6.023438 -1.535156 5.859375 -1.203125 C 5.703125 -0.867188 5.484375 -0.601562 5.203125 -0.40625 C 4.921875 -0.21875 4.609375 -0.0820312 4.265625 0 C 3.921875 0.09375 3.550781 0.140625 3.15625 0.140625 C 2.8125 0.140625 2.472656 0.101562 2.140625 0.03125 C 1.816406 -0.03125 1.546875 -0.113281 1.328125 -0.21875 C 1.109375 -0.320312 0.910156 -0.425781 0.734375 -0.53125 C 0.554688 -0.632812 0.425781 -0.71875 0.34375 -0.78125 L 0.21875 -0.890625 L 1.109375 -2.390625 C 1.179688 -2.328125 1.285156 -2.242188 1.421875 -2.140625 C 1.554688 -2.046875 1.789062 -1.914062 2.125 -1.75 C 2.46875 -1.59375 2.769531 -1.515625 3.03125 -1.515625 C 3.78125 -1.515625 4.15625 -1.769531 4.15625 -2.28125 C 4.15625 -2.382812 4.128906 -2.484375 4.078125 -2.578125 C 4.023438 -2.671875 3.925781 -2.757812 3.78125 -2.84375 C 3.644531 -2.9375 3.523438 -3.007812 3.421875 -3.0625 C 3.316406 -3.125 3.144531 -3.207031 2.90625 -3.3125 C 2.675781 -3.425781 2.503906 -3.507812 2.390625 -3.5625 C 1.910156 -3.800781 1.539062 -4.09375 1.28125 -4.4375 C 1.03125 -4.789062 0.90625 -5.171875 0.90625 -5.578125 C 0.90625 -6.273438 1.160156 -6.847656 1.671875 -7.296875 C 2.191406 -7.742188 2.785156 -7.96875 3.453125 -7.96875 Z M 3.453125 -7.96875 "/></g></g></g><g fill="#ffffff" fill-opacity="1"><g transform="translate(244.869742, 226.841389)"><g><path d="M 4.734375 -1.609375 C 5.003906 -1.609375 5.265625 -1.648438 5.515625 -1.734375 C 5.773438 -1.816406 5.96875 -1.894531 6.09375 -1.96875 L 6.265625 -2.09375 L 7.03125 -0.578125 C 7 -0.554688 6.960938 -0.53125 6.921875 -0.5 C 6.878906 -0.46875 6.773438 -0.410156 6.609375 -0.328125 C 6.453125 -0.242188 6.28125 -0.171875 6.09375 -0.109375 C 5.914062 -0.046875 5.675781 0.0078125 5.375 0.0625 C 5.082031 0.113281 4.773438 0.140625 4.453125 0.140625 C 3.722656 0.140625 3.03125 -0.0351562 2.375 -0.390625 C 1.726562 -0.742188 1.207031 -1.234375 0.8125 -1.859375 C 0.414062 -2.492188 0.21875 -3.171875 0.21875 -3.890625 C 0.21875 -4.441406 0.332031 -4.96875 0.5625 -5.46875 C 0.800781 -5.976562 1.113281 -6.414062 1.5 -6.78125 C 1.894531 -7.144531 2.347656 -7.429688 2.859375 -7.640625 C 3.378906 -7.859375 3.910156 -7.96875 4.453125 -7.96875 C 4.960938 -7.96875 5.429688 -7.90625 5.859375 -7.78125 C 6.285156 -7.664062 6.585938 -7.546875 6.765625 -7.421875 L 7.03125 -7.25 L 6.265625 -5.734375 C 6.222656 -5.765625 6.15625 -5.804688 6.0625 -5.859375 C 5.976562 -5.921875 5.800781 -5.992188 5.53125 -6.078125 C 5.269531 -6.171875 5.003906 -6.21875 4.734375 -6.21875 C 4.304688 -6.21875 3.921875 -6.144531 3.578125 -6 C 3.234375 -5.863281 2.960938 -5.679688 2.765625 -5.453125 C 2.566406 -5.222656 2.414062 -4.976562 2.3125 -4.71875 C 2.207031 -4.457031 2.15625 -4.191406 2.15625 -3.921875 C 2.15625 -3.328125 2.375 -2.789062 2.8125 -2.3125 C 3.257812 -1.84375 3.898438 -1.609375 4.734375 -1.609375 Z M 4.734375 -1.609375 "/></g></g></g><g fill="#ffffff" fill-opacity="1"><g transform="translate(252.628461, 226.841389)"><g><path d="M 0.21875 -3.921875 C 0.21875 -5.046875 0.601562 -6 1.375 -6.78125 C 2.144531 -7.570312 3.070312 -7.96875 4.15625 -7.96875 C 5.25 -7.96875 6.175781 -7.578125 6.9375 -6.796875 C 7.707031 -6.015625 8.09375 -5.054688 8.09375 -3.921875 C 8.09375 -2.773438 7.71875 -1.8125 6.96875 -1.03125 C 6.21875 -0.25 5.28125 0.140625 4.15625 0.140625 C 3.019531 0.140625 2.078125 -0.242188 1.328125 -1.015625 C 0.585938 -1.796875 0.21875 -2.765625 0.21875 -3.921875 Z M 2.140625 -3.921875 C 2.140625 -3.503906 2.203125 -3.125 2.328125 -2.78125 C 2.453125 -2.445312 2.671875 -2.160156 2.984375 -1.921875 C 3.304688 -1.691406 3.695312 -1.578125 4.15625 -1.578125 C 4.820312 -1.578125 5.320312 -1.804688 5.65625 -2.265625 C 6 -2.722656 6.171875 -3.273438 6.171875 -3.921875 C 6.171875 -4.554688 6 -5.101562 5.65625 -5.5625 C 5.3125 -6.019531 4.8125 -6.25 4.15625 -6.25 C 3.519531 -6.25 3.023438 -6.019531 2.671875 -5.5625 C 2.316406 -5.101562 2.140625 -4.554688 2.140625 -3.921875 Z M 2.140625 -3.921875 "/></g></g></g><g fill="#ffffff" fill-opacity="1"><g transform="translate(261.563253, 226.841389)"><g><path d="M 0.5625 -7.828125 L 3.421875 -7.828125 C 4.222656 -7.828125 4.867188 -7.617188 5.359375 -7.203125 C 5.847656 -6.796875 6.09375 -6.195312 6.09375 -5.40625 C 6.09375 -4.625 5.84375 -4.007812 5.34375 -3.5625 C 4.84375 -3.125 4.203125 -2.90625 3.421875 -2.90625 L 2.359375 -2.90625 L 2.359375 0 L 0.5625 0 Z M 2.359375 -4.328125 L 2.859375 -4.328125 C 3.253906 -4.328125 3.578125 -4.40625 3.828125 -4.5625 C 4.085938 -4.726562 4.21875 -4.992188 4.21875 -5.359375 C 4.21875 -5.734375 4.085938 -6 3.828125 -6.15625 C 3.578125 -6.320312 3.253906 -6.40625 2.859375 -6.40625 L 2.359375 -6.40625 Z M 2.359375 -4.328125 "/></g></g></g><g fill="#ffffff" fill-opacity="1"><g transform="translate(268.496823, 226.841389)"><g><path d="M 5.046875 -7.828125 L 5.046875 -6.265625 L 2.359375 -6.265625 L 2.359375 -4.703125 L 4.9375 -4.703125 L 4.9375 -3.140625 L 2.359375 -3.140625 L 2.359375 -1.5625 L 5.046875 -1.5625 L 5.046875 0 L 0.5625 0 L 0.5625 -7.828125 Z M 5.046875 -7.828125 "/></g></g></g><g fill="#ffffff" fill-opacity="1"><g transform="translate(274.61473, 226.841389)"><g><path d="M 0.5625 -7.828125 L 3.421875 -7.828125 C 4.222656 -7.828125 4.867188 -7.617188 5.359375 -7.203125 C 5.847656 -6.796875 6.09375 -6.195312 6.09375 -5.40625 C 6.09375 -4.625 5.84375 -4.007812 5.34375 -3.5625 C 4.84375 -3.125 4.203125 -2.90625 3.421875 -2.90625 L 2.359375 -2.90625 L 2.359375 0 L 0.5625 0 Z M 2.359375 -4.328125 L 2.859375 -4.328125 C 3.253906 -4.328125 3.578125 -4.40625 3.828125 -4.5625 C 4.085938 -4.726562 4.21875 -4.992188 4.21875 -5.359375 C 4.21875 -5.734375 4.085938 -6 3.828125 -6.15625 C 3.578125 -6.320312 3.253906 -6.40625 2.859375 -6.40625 L 2.359375 -6.40625 Z M 2.359375 -4.328125 "/></g></g></g><g fill="#ffffff" fill-opacity="1"><g transform="translate(281.5483, 226.841389)"><g><path d="M 2.359375 -7.828125 L 2.359375 0 L 0.5625 0 L 0.5625 -7.828125 Z M 2.359375 -7.828125 "/></g></g></g><g fill="#ffffff" fill-opacity="1"><g transform="translate(285.08644, 226.841389)"><g><path d="M 0.5625 -7.828125 L 3.421875 -7.828125 C 4.222656 -7.828125 4.867188 -7.617188 5.359375 -7.203125 C 5.847656 -6.796875 6.09375 -6.195312 6.09375 -5.40625 C 6.09375 -4.625 5.84375 -4.007812 5.34375 -3.5625 C 4.84375 -3.125 4.203125 -2.90625 3.421875 -2.90625 L 2.359375 -2.90625 L 2.359375 0 L 0.5625 0 Z M 2.359375 -4.328125 L 2.859375 -4.328125 C 3.253906 -4.328125 3.578125 -4.40625 3.828125 -4.5625 C 4.085938 -4.726562 4.21875 -4.992188 4.21875 -5.359375 C 4.21875 -5.734375 4.085938 -6 3.828125 -6.15625 C 3.578125 -6.320312 3.253906 -6.40625 2.859375 -6.40625 L 2.359375 -6.40625 Z M 2.359375 -4.328125 "/></g></g></g><g fill="#ffffff" fill-opacity="1"><g transform="translate(292.02001, 226.841389)"><g><path d="M 3.453125 -7.96875 C 3.878906 -7.96875 4.289062 -7.90625 4.6875 -7.78125 C 5.09375 -7.65625 5.394531 -7.535156 5.59375 -7.421875 L 5.875 -7.234375 L 5.15625 -5.796875 C 5.101562 -5.835938 5.023438 -5.890625 4.921875 -5.953125 C 4.816406 -6.015625 4.625 -6.09375 4.34375 -6.1875 C 4.070312 -6.289062 3.816406 -6.34375 3.578125 -6.34375 C 3.273438 -6.34375 3.039062 -6.28125 2.875 -6.15625 C 2.71875 -6.03125 2.640625 -5.859375 2.640625 -5.640625 C 2.640625 -5.535156 2.675781 -5.4375 2.75 -5.34375 C 2.832031 -5.25 2.960938 -5.148438 3.140625 -5.046875 C 3.328125 -4.941406 3.488281 -4.859375 3.625 -4.796875 C 3.769531 -4.734375 3.988281 -4.640625 4.28125 -4.515625 C 4.78125 -4.296875 5.207031 -4 5.5625 -3.625 C 5.925781 -3.257812 6.109375 -2.84375 6.109375 -2.375 C 6.109375 -1.925781 6.023438 -1.535156 5.859375 -1.203125 C 5.703125 -0.867188 5.484375 -0.601562 5.203125 -0.40625 C 4.921875 -0.21875 4.609375 -0.0820312 4.265625 0 C 3.921875 0.09375 3.550781 0.140625 3.15625 0.140625 C 2.8125 0.140625 2.472656 0.101562 2.140625 0.03125 C 1.816406 -0.03125 1.546875 -0.113281 1.328125 -0.21875 C 1.109375 -0.320312 0.910156 -0.425781 0.734375 -0.53125 C 0.554688 -0.632812 0.425781 -0.71875 0.34375 -0.78125 L 0.21875 -0.890625 L 1.109375 -2.390625 C 1.179688 -2.328125 1.285156 -2.242188 1.421875 -2.140625 C 1.554688 -2.046875 1.789062 -1.914062 2.125 -1.75 C 2.46875 -1.59375 2.769531 -1.515625 3.03125 -1.515625 C 3.78125 -1.515625 4.15625 -1.769531 4.15625 -2.28125 C 4.15625 -2.382812 4.128906 -2.484375 4.078125 -2.578125 C 4.023438 -2.671875 3.925781 -2.757812 3.78125 -2.84375 C 3.644531 -2.9375 3.523438 -3.007812 3.421875 -3.0625 C 3.316406 -3.125 3.144531 -3.207031 2.90625 -3.3125 C 2.675781 -3.425781 2.503906 -3.507812 2.390625 -3.5625 C 1.910156 -3.800781 1.539062 -4.09375 1.28125 -4.4375 C 1.03125 -4.789062 0.90625 -5.171875 0.90625 -5.578125 C 0.90625 -6.273438 1.160156 -6.847656 1.671875 -7.296875 C 2.191406 -7.742188 2.785156 -7.96875 3.453125 -7.96875 Z M 3.453125 -7.96875 "/></g></g></g><g fill="#ffffff" fill-opacity="1"><g transform="translate(240.149212, 237.815265)"><g><path d="M 2.875 0.078125 C 2.414062 0.078125 2.007812 -0.0234375 1.65625 -0.234375 C 1.300781 -0.441406 1.019531 -0.742188 0.8125 -1.140625 C 0.613281 -1.546875 0.515625 -2.03125 0.515625 -2.59375 C 0.515625 -3.15625 0.613281 -3.632812 0.8125 -4.03125 C 1.019531 -4.4375 1.300781 -4.742188 1.65625 -4.953125 C 2.007812 -5.160156 2.414062 -5.265625 2.875 -5.265625 C 3.351562 -5.265625 3.753906 -5.171875 4.078125 -4.984375 C 4.398438 -4.804688 4.632812 -4.535156 4.78125 -4.171875 L 4.390625 -3.90625 L 4.296875 -3.90625 C 4.160156 -4.207031 3.976562 -4.414062 3.75 -4.53125 C 3.519531 -4.65625 3.226562 -4.71875 2.875 -4.71875 C 2.539062 -4.71875 2.25 -4.644531 2 -4.5 C 1.75 -4.351562 1.546875 -4.125 1.390625 -3.8125 C 1.242188 -3.5 1.171875 -3.09375 1.171875 -2.59375 C 1.171875 -2.101562 1.242188 -1.695312 1.390625 -1.375 C 1.546875 -1.0625 1.75 -0.832031 2 -0.6875 C 2.25 -0.539062 2.539062 -0.46875 2.875 -0.46875 C 3.25 -0.46875 3.554688 -0.550781 3.796875 -0.71875 C 4.035156 -0.894531 4.210938 -1.171875 4.328125 -1.546875 L 4.421875 -1.546875 L 4.828125 -1.34375 C 4.703125 -0.882812 4.472656 -0.53125 4.140625 -0.28125 C 3.804688 -0.0390625 3.382812 0.078125 2.875 0.078125 Z M 2.875 0.078125 "/></g></g></g><g fill="#ffffff" fill-opacity="1"><g transform="translate(249.559897, 237.815265)"><g><path d="M 2.84375 0.078125 C 2.394531 0.078125 1.992188 -0.0195312 1.640625 -0.21875 C 1.296875 -0.414062 1.019531 -0.710938 0.8125 -1.109375 C 0.613281 -1.503906 0.515625 -2 0.515625 -2.59375 C 0.515625 -3.1875 0.613281 -3.679688 0.8125 -4.078125 C 1.019531 -4.484375 1.296875 -4.78125 1.640625 -4.96875 C 1.992188 -5.164062 2.394531 -5.265625 2.84375 -5.265625 C 3.300781 -5.265625 3.703125 -5.164062 4.046875 -4.96875 C 4.398438 -4.78125 4.675781 -4.484375 4.875 -4.078125 C 5.082031 -3.679688 5.1875 -3.1875 5.1875 -2.59375 C 5.1875 -2 5.082031 -1.503906 4.875 -1.109375 C 4.675781 -0.710938 4.398438 -0.414062 4.046875 -0.21875 C 3.703125 -0.0195312 3.300781 0.078125 2.84375 0.078125 Z M 2.84375 -0.484375 C 3.382812 -0.484375 3.800781 -0.648438 4.09375 -0.984375 C 4.382812 -1.328125 4.53125 -1.863281 4.53125 -2.59375 C 4.53125 -3.320312 4.382812 -3.851562 4.09375 -4.1875 C 3.800781 -4.53125 3.382812 -4.703125 2.84375 -4.703125 C 1.726562 -4.703125 1.171875 -4 1.171875 -2.59375 C 1.171875 -1.1875 1.726562 -0.484375 2.84375 -0.484375 Z M 2.84375 -0.484375 "/></g></g></g><g fill="#ffffff" fill-opacity="1"><g transform="translate(259.575571, 237.815265)"><g><path d="M 1.34375 0 L 0.78125 0 L 0.78125 -5.203125 L 1.6875 -5.203125 L 3.265625 -0.796875 L 3.34375 -0.796875 L 4.921875 -5.203125 L 5.796875 -5.203125 L 5.796875 0 L 5.21875 0 L 5.21875 -4.234375 L 5.125 -4.25 L 3.59375 0 L 2.984375 0 L 1.4375 -4.25 L 1.34375 -4.234375 Z M 1.34375 0 "/></g></g></g><g fill="#ffffff" fill-opacity="1"><g transform="translate(270.47026, 237.815265)"><g><path d="M 2.640625 -5.203125 C 3.003906 -5.203125 3.3125 -5.132812 3.5625 -5 C 3.820312 -4.875 4.019531 -4.691406 4.15625 -4.453125 C 4.289062 -4.210938 4.359375 -3.929688 4.359375 -3.609375 C 4.359375 -3.285156 4.289062 -3.003906 4.15625 -2.765625 C 4.019531 -2.535156 3.820312 -2.351562 3.5625 -2.21875 C 3.3125 -2.09375 3.003906 -2.03125 2.640625 -2.03125 L 1.390625 -2.03125 L 1.390625 0 L 0.78125 0 L 0.78125 -5.203125 Z M 2.625 -2.5625 C 3.351562 -2.5625 3.71875 -2.910156 3.71875 -3.609375 C 3.71875 -4.316406 3.351562 -4.671875 2.625 -4.671875 L 1.390625 -4.671875 L 1.390625 -2.5625 Z M 2.625 -2.5625 "/></g></g></g><g fill="#ffffff" fill-opacity="1"><g transform="translate(279.521509, 237.815265)"><g><path d="M 4.671875 0 L 4.03125 0 L 3.546875 -1.421875 L 1.328125 -1.421875 L 0.84375 0 L 0.203125 0 L 2.015625 -5.203125 L 2.859375 -5.203125 Z M 2.390625 -4.5625 L 1.5 -1.9375 L 3.375 -1.9375 L 2.484375 -4.5625 Z M 2.390625 -4.5625 "/></g></g></g><g fill="#ffffff" fill-opacity="1"><g transform="translate(288.718669, 237.815265)"><g><path d="M 1.390625 0 L 0.78125 0 L 0.78125 -5.203125 L 1.53125 -5.203125 L 4.078125 -1.234375 L 4.15625 -1.234375 L 4.15625 -5.203125 L 4.75 -5.203125 L 4.75 0 L 4.109375 0 L 1.46875 -4.25 L 1.390625 -4.234375 Z M 1.390625 0 "/></g></g></g><g fill="#ffffff" fill-opacity="1"><g transform="translate(298.574201, 237.815265)"><g><path d="M 2.53125 0 L 1.9375 0 L 1.9375 -2.046875 L 0.140625 -5.203125 L 0.796875 -5.203125 L 2.203125 -2.765625 L 2.296875 -2.765625 L 3.6875 -5.203125 L 4.34375 -5.203125 L 2.53125 -2.046875 Z M 2.53125 0 "/></g></g></g></svg>